<svg width="268" height="254" viewBox="0 0 268 254" fill="none" xmlns="http://www.w3.org/2000/svg">
<path fill-rule="evenodd" clip-rule="evenodd" d="M114.312 249.666L120.722 252.267C128.656 231.92 130.702 209.461 126.657 188.188C122.607 166.916 112.489 146.95 97.8821 131.193C93.1492 126.069 87.8006 121.296 81.4934 118.044C75.1778 114.781 67.7871 113.237 60.7892 114.709C54.2415 116.12 48.4873 120.108 44.4027 125.254C40.3206 130.395 37.8145 136.6 36.5117 142.948C34.9275 150.651 35.0532 158.672 36.8554 166.274C35.2823 158.621 35.4079 150.651 37.199 143.1C38.6772 136.88 41.3135 130.885 45.396 126.066C49.4742 121.254 55.0592 117.632 61.1519 116.535C67.6538 115.331 74.4937 117.038 80.3261 120.234C86.1707 123.443 91.1048 128.165 95.5742 133.265C109.314 149.004 118.467 168.61 121.721 189.054C124.979 209.494 122.343 230.788 114.312 249.673L114.312 249.666Z" fill="#A38D7F"/>
<path fill-rule="evenodd" clip-rule="evenodd" d="M123.791 251.951L130.708 252.101C130.844 235.006 131.001 217.909 131.178 200.813C131.294 189.922 131.395 178.937 130.566 167.948C129.748 157.036 127.95 146.091 124.325 135.678C121.51 127.563 117.483 119.714 111.693 113.24C105.897 106.754 98.1894 101.795 89.621 100.11H89.6209C84.0408 99.0378 78.3931 99.3579 72.9076 99.9116C67.4228 100.454 62.0023 101.213 56.5999 101.024C47.2241 100.694 37.7142 97.3544 31.0148 90.7164C25.5762 85.3357 22.1558 77.8884 21.6401 70.1807C21.9434 77.8996 25.1616 85.518 30.5598 91.1622C37.2176 98.1127 46.8612 101.858 56.5318 102.444C62.0907 102.782 67.6197 102.172 73.0684 101.778C78.5165 101.395 83.9839 101.219 89.1457 102.385C97.0755 104.137 104.134 109.026 109.416 115.224C114.705 121.435 118.285 128.997 120.799 136.852C124.02 146.945 125.446 157.571 125.967 168.233C126.487 178.98 126.082 189.8 125.672 200.681C125.025 217.77 124.397 234.861 123.791 251.952L123.791 251.951Z" fill="#A38D7F"/>
<path fill-rule="evenodd" clip-rule="evenodd" d="M123.471 250.782L130.263 252.099C139.252 202.667 136.568 151.321 122.614 103.349C120.653 96.5725 118.397 89.7225 114.802 83.4735C111.21 77.2107 106.094 71.6047 99.5404 68.3652C94.6245 65.9723 89.27 65.0315 84.065 64.2223C78.8657 63.3957 73.6674 62.6514 68.9489 60.6333H68.9489C61.5539 57.4936 55.5262 51.2027 52.415 43.7006C50.2658 38.5174 49.4566 32.7608 50.1065 27.1522C50.7561 21.5435 52.8642 16.0874 56.1837 11.472C52.7518 16.0046 50.4886 21.4362 49.6908 27.099C48.8935 32.7619 49.5639 38.6415 51.6367 44.011C54.639 51.7894 60.6825 58.4529 68.3654 61.9529C73.2677 64.1713 78.5906 65.0896 83.7572 66.0251C88.9179 66.9781 94.0729 67.9922 98.5375 70.3416C104.522 73.4397 109.134 78.8331 112.414 84.8095C115.693 90.8018 117.684 97.4701 119.478 104.217C132.119 152.024 133.454 202.647 123.47 250.783L123.471 250.782Z" fill="#A38D7F"/>
<path fill-rule="evenodd" clip-rule="evenodd" d="M130.278 251.739H137.197L133.738 0.977173L130.278 251.739Z" fill="#A38D7F"/>
<path fill-rule="evenodd" clip-rule="evenodd" d="M147.096 252.27L153.506 249.67C145.475 230.786 142.839 209.492 146.097 189.051C149.351 168.61 158.504 149.004 172.244 133.262C176.713 128.162 181.647 123.44 187.492 120.23C193.324 117.035 200.164 115.328 206.666 116.532C212.758 117.628 218.344 121.251 222.422 126.063C226.504 130.882 229.141 136.876 230.619 143.097C232.41 150.648 232.535 158.618 230.962 166.27C232.765 158.669 232.89 150.648 231.306 142.945C230.003 136.597 227.497 130.392 223.415 125.251C219.33 120.105 213.576 116.117 207.029 114.706C200.031 113.234 192.64 114.778 186.324 118.041C180.017 121.293 174.668 126.066 169.936 131.19C155.328 146.947 145.21 166.912 141.161 188.185C137.116 209.458 139.162 231.917 147.096 252.264L147.096 252.27Z" fill="#A38D7F"/>
<path fill-rule="evenodd" clip-rule="evenodd" d="M110.033 253.014C110.033 253.014 118.141 250.108 120.636 231.01C123.131 211.912 124.17 206.93 124.17 206.93L143.712 206.515C143.712 206.515 144.959 239.729 150.78 246.372L156.601 253.014H110.034L110.033 253.014Z" fill="#A38D7F"/>
<path fill-rule="evenodd" clip-rule="evenodd" d="M137.106 252.058L144.023 251.908C143.417 234.816 142.79 217.726 142.142 200.636C141.732 189.756 141.328 178.936 141.848 168.189C142.368 157.526 143.795 146.901 147.015 136.807C149.529 128.954 153.109 121.391 158.399 115.18C163.681 108.983 170.739 104.093 178.669 102.341C183.831 101.175 189.298 101.351 194.746 101.734C200.195 102.128 205.724 102.738 211.282 102.4C220.953 101.814 230.597 98.0688 237.254 91.1181C242.653 85.4739 245.871 77.8554 246.174 70.1365C245.659 77.8442 242.238 85.2916 236.799 90.6722C230.1 97.3107 220.59 100.65 211.214 100.98C205.812 101.169 200.391 100.41 194.907 99.8675C189.421 99.3138 183.773 98.9936 178.193 100.065C169.625 101.751 161.917 106.71 156.121 113.196C150.331 119.67 146.305 127.519 143.489 135.633C139.865 146.047 138.066 156.992 137.248 167.904C136.419 178.893 136.52 189.877 136.636 200.769C136.813 217.865 136.97 234.961 137.106 252.057L137.106 252.058Z" fill="#A38D7F"/>
<path fill-rule="evenodd" clip-rule="evenodd" d="M137.553 252.058L144.345 250.741C134.361 202.604 135.697 151.982 148.338 104.175C150.132 97.428 152.123 90.7598 155.402 84.7675C158.682 78.7911 163.295 73.3977 169.278 70.2995C173.743 67.9502 178.898 66.9361 184.059 65.9831C189.225 65.0476 194.548 64.1292 199.45 61.9108C207.133 58.4109 213.177 51.7474 216.179 43.969C218.252 38.5995 218.922 32.7199 218.125 27.057C217.327 21.3942 215.064 15.9631 211.632 11.4301C214.952 16.0453 217.06 21.5015 217.709 27.1102C218.359 32.7188 217.55 38.4751 215.401 43.6586C212.29 51.1607 206.262 57.4517 198.867 60.5913C194.149 62.6095 188.95 63.3537 183.751 64.1803C178.546 64.9895 173.191 65.9302 168.275 68.3231C161.722 71.5629 156.606 77.1692 153.014 83.4315C149.419 89.6799 147.163 96.5306 145.202 103.307C131.248 151.279 128.564 202.625 137.552 252.057L137.553 252.058Z" fill="#A38D7F"/>
<path d="M34.5394 147.376C34.5394 147.376 25.3101 150.054 21.9225 154.608C18.535 159.163 16.4362 170.281 16.4362 170.281C16.4362 170.281 24.0221 167.926 27.6001 163.848C31.1779 159.771 34.5195 147.604 34.5389 147.376L34.5394 147.376Z" fill="#5AA02C" stroke="#17280B" stroke-width="1.10645"/>
<path fill-rule="evenodd" clip-rule="evenodd" d="M35.2977 144.965L36.0206 145.358C33.6116 149.617 30.8732 153.683 27.8404 157.509C25.4159 160.567 22.8032 163.472 20.0231 166.201C22.7163 163.387 25.2314 160.407 27.5503 157.287C30.4507 153.384 33.043 149.259 35.2977 144.965L35.2977 144.965Z" fill="#17280B"/>
<path d="M77.4138 120.483C77.4138 120.483 76.128 120.073 70.1692 121.662C61.09 124.084 60.5905 138.977 60.5905 138.977C60.5905 138.977 75.5653 134.272 76.4583 127.906C77.2327 122.385 77.7694 120.452 77.4138 120.483L77.4138 120.483Z" fill="#5AA02C" stroke="#17280B" stroke-width="1.21464"/>
<path fill-rule="evenodd" clip-rule="evenodd" d="M77.6383 117.678L78.914 118.125C77.3944 122.048 75.1145 125.645 72.2569 128.665C70.1777 130.862 67.7956 132.754 65.2089 134.272C67.6942 132.593 69.9293 130.57 71.8309 128.287C74.4442 125.15 76.4238 121.52 77.6383 117.678Z" fill="#17280B"/>
<path d="M48.8435 117.356C48.8435 117.356 41.0702 109.679 30.5096 113.666C19.9491 117.652 14.7709 123.135 14.7709 123.135C14.7709 123.135 25.7147 125.939 32.8616 124.81C40.008 123.682 49.222 117.712 48.8435 117.356Z" fill="#5AA02C" stroke="#17280B" stroke-width="1.25183"/>
<path fill-rule="evenodd" clip-rule="evenodd" d="M54.4677 117.487L54.2871 118.397C49.0106 117.274 43.5714 116.86 38.1643 117.176C32.8834 117.484 27.6332 118.489 22.5936 120.161C27.5827 118.345 32.8209 117.183 38.1309 116.719C43.5677 116.244 49.0787 116.501 54.4678 117.487L54.4677 117.487Z" fill="#17280B"/>
<path d="M72.124 97.5783C72.124 97.5783 71.876 89.6529 67.6595 84.4521C63.443 79.2513 49.3055 79.0037 49.3055 79.0037C49.3055 79.0037 57.7386 92.3776 63.6909 95.3494C69.7824 98.3906 72.6199 97.5783 72.124 97.5783Z" fill="#5AA02C" stroke="#17280B" stroke-width="1.19308"/>
<path fill-rule="evenodd" clip-rule="evenodd" d="M73.7048 99.5239L72.4992 100.081C71.3674 97.4676 69.9509 94.9686 68.2796 92.6428C65.9731 89.4357 63.1721 86.5492 59.8749 84.3269C58.1948 83.1942 56.3901 82.2358 54.5 81.4751C56.4256 82.1414 58.2856 83.0127 60.0383 84.072C63.4771 86.1512 66.4791 88.9412 68.9956 92.1018C70.8203 94.3923 72.4029 96.8844 73.705 99.5237L73.7048 99.5239Z" fill="#17280B"/>
<path d="M107.391 116.183C107.391 116.183 100.587 122.903 91.3431 119.413C82.0992 115.924 77.5666 111.125 77.5666 111.125C77.5666 111.125 87.146 108.67 93.4018 109.658C99.6573 110.646 107.723 115.871 107.391 116.183Z" fill="#5AA02C" stroke="#17280B" stroke-width="1.09576"/>
<path fill-rule="evenodd" clip-rule="evenodd" d="M112.314 116.069L112.156 115.272C107.538 116.255 102.776 116.617 98.0435 116.341C93.421 116.071 88.8253 115.192 84.414 113.728C88.7811 115.317 93.3662 116.335 98.0142 116.741C102.773 117.157 107.597 116.932 112.314 116.069L112.314 116.069Z" fill="#17280B"/>
<path d="M30.3367 93.9659C30.3367 93.9659 22.8198 99.877 14.0274 95.3699C5.23507 90.8628 1.27143 85.584 1.27143 85.584C1.27143 85.584 11.0659 84.2229 17.1707 85.9087C23.2751 87.5941 30.701 93.6931 30.3367 93.9659Z" fill="#5AA02C" stroke="#17280B" stroke-width="1.09575"/>
<path fill-rule="evenodd" clip-rule="evenodd" d="M35.2414 94.4052L35.1739 93.5958C30.474 94.0531 25.7025 93.8772 21.0307 93.07C16.468 92.2815 12.0005 90.8907 7.78198 88.9401C11.9424 91.0108 16.3839 92.5376 20.9566 93.4641C25.6386 94.4128 30.4572 94.732 35.2414 94.4052L35.2414 94.4052Z" fill="#17280B"/>
<path d="M87.2762 61.9756C87.2762 61.9756 91.1581 52.3978 83.8284 44.6456C76.4986 36.8934 69.8196 34.3796 69.8196 34.3796C69.8196 34.3796 71.352 44.9436 74.9409 50.7624C78.5293 56.5809 87.1024 62.4357 87.2762 61.9756Z" fill="#5AA02C" stroke="#17280B" stroke-width="1.18424"/>
<path fill-rule="evenodd" clip-rule="evenodd" d="M89.2118 66.9259L88.3503 67.1005C87.4116 62.0909 85.7933 57.1982 83.5488 52.5998C81.3565 48.1087 78.567 43.8982 75.2707 40.115C78.6744 43.8017 81.5974 47.9441 83.936 52.4039C86.3306 56.9702 88.1121 61.8683 89.2118 66.926L89.2118 66.9259Z" fill="#17280B"/>
<path d="M53.4537 51.055C53.4537 51.055 45.5702 52.1617 39.704 48.8875C33.8378 45.6133 31.1763 31.7036 31.1763 31.7036C31.1763 31.7036 45.8494 37.7453 49.807 43.1128C53.8571 48.6056 53.5385 51.5444 53.4537 51.055Z" fill="#5AA02C" stroke="#17280B" stroke-width="1.19641"/>
<path fill-rule="evenodd" clip-rule="evenodd" d="M55.6491 52.2825L55.9941 50.9976C53.2151 50.3263 50.5004 49.3546 47.9136 48.1018C44.3463 46.3724 41.0116 44.1004 38.2493 41.2253C36.8413 39.7604 35.5847 38.1428 34.5089 36.4072C35.4973 38.1939 36.6773 39.881 38.025 41.43C40.6699 44.4692 43.9435 46.9561 47.5008 48.9007C50.0788 50.3108 52.815 51.4477 55.6489 52.2827L55.6491 52.2825Z" fill="#17280B"/>
<path d="M109.97 84.1467C109.97 84.1467 109.255 82.9761 103.62 80.2328C95.0327 76.0526 84.7238 87.1614 84.7238 87.1614C84.7238 87.1614 99.3604 93.5096 104.289 89.2132C108.563 85.4871 110.264 84.3591 109.969 84.1466L109.97 84.1467Z" fill="#5AA02C" stroke="#17280B" stroke-width="1.23451"/>
<path fill-rule="evenodd" clip-rule="evenodd" d="M112.013 82.1383L112.695 83.3314C108.913 85.3346 104.765 86.5816 100.557 87.0004C97.4955 87.3051 94.4048 87.1736 91.406 86.6187C94.4337 86.983 97.499 86.9157 100.481 86.4269C104.579 85.7553 108.52 84.2829 112.013 82.1383Z" fill="#17280B"/>
<path d="M135.899 44.8743C135.899 44.8743 137.186 45.8135 144.454 46.256C155.529 46.9305 161.645 30.4329 161.645 30.4329C161.645 30.4329 143.115 30.117 139.739 36.9155C136.812 42.8115 135.489 44.7769 135.899 44.8743Z" fill="#70E000" stroke="#17280B" stroke-width="1.4339"/>
<path fill-rule="evenodd" clip-rule="evenodd" d="M134.599 47.9364L133.336 46.9589C136.503 43.1308 140.4 39.9511 144.728 37.6339C147.877 35.9479 151.252 34.717 154.717 33.9811C151.306 34.9343 148.047 36.3673 145.064 38.2156C140.966 40.7555 137.393 44.0843 134.599 47.9364Z" fill="#17280B"/>
<path d="M129.253 66.703C129.253 66.703 119.108 66.3444 115.084 56.6782C111.06 47.012 111.475 40.0256 111.475 40.0256C111.475 40.0256 120.341 45.6267 124.126 51.1694C127.911 56.7116 129.736 66.7315 129.253 66.703Z" fill="#70E000" stroke="#17280B" stroke-width="1.16247"/>
<path fill-rule="evenodd" clip-rule="evenodd" d="M132.923 70.4162L133.424 69.7147C129.305 66.8685 125.562 63.4607 122.334 59.61C119.181 55.849 116.519 51.6656 114.442 47.1994C116.389 51.7231 118.937 55.9988 122.003 59.8783C125.143 63.8506 128.825 67.4066 132.923 70.4162L132.923 70.4162Z" fill="#17280B"/>
<path d="M132.828 26.8993C132.828 26.8993 132.58 18.9739 128.364 13.7731C124.147 8.57233 110.01 8.32471 110.01 8.32471C110.01 8.32471 118.443 21.6986 124.395 24.6704C130.486 27.7116 133.324 26.8993 132.828 26.8993Z" fill="#70E000" stroke="#17280B" stroke-width="1.19308"/>
<path fill-rule="evenodd" clip-rule="evenodd" d="M134.409 28.8449L133.203 29.402C132.071 26.7887 130.655 24.2896 128.984 21.9638C126.677 18.7567 123.876 15.8703 120.579 13.6479C118.899 12.5152 117.094 11.5569 115.204 10.7961C117.13 11.4624 118.99 12.3338 120.742 13.3931C124.181 15.4722 127.183 18.2623 129.7 21.4229C131.524 23.7133 133.107 26.2054 134.409 28.8447L134.409 28.8449Z" fill="#17280B"/>
<path d="M34.5394 147.376C34.5394 147.376 25.3101 150.054 21.9225 154.608C18.535 159.163 16.4362 170.281 16.4362 170.281C16.4362 170.281 24.0221 167.926 27.6001 163.848C31.1779 159.771 34.5199 147.604 34.5394 147.376Z" fill="#70E000" stroke="#17280B" stroke-width="1.10645"/>
<path fill-rule="evenodd" clip-rule="evenodd" d="M35.2977 144.965L36.0206 145.358C33.6116 149.617 30.8732 153.683 27.8404 157.509C25.4159 160.567 22.8032 163.472 20.0231 166.201C22.7163 163.387 25.2314 160.407 27.5503 157.287C30.4507 153.384 33.043 149.259 35.2977 144.965L35.2977 144.965Z" fill="#17280B"/>
<path d="M77.4138 120.483C77.4138 120.483 76.128 120.073 70.1692 121.662C61.09 124.084 60.5905 138.977 60.5905 138.977C60.5905 138.977 75.5653 134.272 76.4583 127.906C77.2327 122.385 77.7695 120.452 77.4138 120.483Z" fill="#70E000" stroke="#17280B" stroke-width="1.21464"/>
<path fill-rule="evenodd" clip-rule="evenodd" d="M77.6383 117.678L78.914 118.125C77.3944 122.048 75.1145 125.645 72.2569 128.665C70.1777 130.862 67.7956 132.754 65.2089 134.272C67.6942 132.593 69.9293 130.57 71.8309 128.287C74.4442 125.15 76.4238 121.52 77.6383 117.678Z" fill="#17280B"/>
<path d="M48.8435 117.356C48.8435 117.356 41.0701 109.679 30.5096 113.666C19.9491 117.652 14.7709 123.135 14.7709 123.135C14.7709 123.135 25.7147 125.939 32.8616 124.81C40.008 123.682 49.222 117.712 48.8435 117.356Z" fill="#70E000" stroke="#17280B" stroke-width="1.25183"/>
<path fill-rule="evenodd" clip-rule="evenodd" d="M54.4677 117.487L54.2871 118.397C49.0106 117.274 43.5714 116.86 38.1643 117.176C32.8834 117.484 27.6332 118.489 22.5936 120.161C27.5827 118.345 32.8209 117.183 38.1309 116.719C43.5677 116.244 49.0787 116.501 54.4678 117.487L54.4677 117.487Z" fill="#17280B"/>
<path d="M72.124 97.5783C72.124 97.5783 71.876 89.6529 67.6595 84.4521C63.443 79.2513 49.3055 79.0037 49.3055 79.0037C49.3055 79.0037 57.7386 92.3776 63.6909 95.3494C69.7824 98.3906 72.6199 97.5783 72.124 97.5783Z" fill="#70E000" stroke="#17280B" stroke-width="1.19308"/>
<path fill-rule="evenodd" clip-rule="evenodd" d="M73.7048 99.5239L72.4992 100.081C71.3674 97.4676 69.9509 94.9686 68.2796 92.6428C65.9731 89.4357 63.1721 86.5492 59.8749 84.3269C58.1948 83.1942 56.3901 82.2358 54.5 81.4751C56.4256 82.1414 58.2856 83.0127 60.0383 84.072C63.4771 86.1512 66.4791 88.9412 68.9956 92.1018C70.8203 94.3923 72.4029 96.8844 73.705 99.5237L73.7048 99.5239Z" fill="#17280B"/>
<path d="M107.391 116.183C107.391 116.183 100.587 122.903 91.3431 119.413C82.0992 115.924 77.5666 111.125 77.5666 111.125C77.5666 111.125 87.146 108.67 93.4018 109.658C99.6573 110.646 107.723 115.871 107.391 116.183Z" fill="#70E000" stroke="#17280B" stroke-width="1.09576"/>
<path fill-rule="evenodd" clip-rule="evenodd" d="M112.314 116.069L112.156 115.272C107.538 116.255 102.776 116.617 98.0435 116.341C93.421 116.071 88.8253 115.192 84.414 113.728C88.7811 115.317 93.3662 116.335 98.0142 116.741C102.773 117.157 107.597 116.932 112.314 116.069L112.314 116.069Z" fill="#17280B"/>
<path d="M30.3367 93.9659C30.3367 93.9659 22.8198 99.877 14.0274 95.3699C5.23507 90.8628 1.27143 85.584 1.27143 85.584C1.27143 85.584 11.0659 84.2229 17.1707 85.9087C23.2751 87.5941 30.701 93.6931 30.3367 93.9659Z" fill="#70E000" stroke="#17280B" stroke-width="1.09575"/>
<path fill-rule="evenodd" clip-rule="evenodd" d="M35.2414 94.4052L35.1739 93.5958C30.474 94.0531 25.7025 93.8772 21.0307 93.07C16.468 92.2815 12.0005 90.8907 7.78198 88.9401C11.9424 91.0108 16.3839 92.5376 20.9566 93.4641C25.6386 94.4128 30.4572 94.732 35.2414 94.4052L35.2414 94.4052Z" fill="#17280B"/>
<path d="M87.2762 61.9756C87.2762 61.9756 91.1581 52.3978 83.8284 44.6456C76.4986 36.8934 69.8196 34.3796 69.8196 34.3796C69.8196 34.3796 71.352 44.9436 74.9409 50.7624C78.5293 56.5809 87.1024 62.4357 87.2762 61.9756Z" fill="#70E000" stroke="#17280B" stroke-width="1.18424"/>
<path fill-rule="evenodd" clip-rule="evenodd" d="M89.2118 66.9259L88.3503 67.1005C87.4116 62.0909 85.7933 57.1982 83.5488 52.5998C81.3565 48.1087 78.567 43.8982 75.2707 40.115C78.6744 43.8017 81.5974 47.9441 83.936 52.4039C86.3306 56.9702 88.1121 61.8683 89.2118 66.926L89.2118 66.9259Z" fill="#17280B"/>
<path d="M53.4537 51.055C53.4537 51.055 45.5702 52.1617 39.704 48.8875C33.8378 45.6133 31.1763 31.7036 31.1763 31.7036C31.1763 31.7036 45.8494 37.7453 49.807 43.1128C53.8571 48.6056 53.5385 51.5444 53.4537 51.055Z" fill="#70E000" stroke="#17280B" stroke-width="1.19641"/>
<path fill-rule="evenodd" clip-rule="evenodd" d="M55.6491 52.2825L55.9941 50.9976C53.2151 50.3263 50.5004 49.3546 47.9136 48.1018C44.3463 46.3724 41.0116 44.1004 38.2493 41.2253C36.8413 39.7604 35.5847 38.1428 34.5089 36.4072C35.4973 38.1939 36.6773 39.881 38.025 41.43C40.6699 44.4692 43.9435 46.9561 47.5008 48.9007C50.0788 50.3108 52.815 51.4477 55.6489 52.2827L55.6491 52.2825Z" fill="#17280B"/>
<path d="M109.97 84.1467C109.97 84.1467 109.255 82.9761 103.62 80.2328C95.0327 76.0526 84.7238 87.1614 84.7238 87.1614C84.7238 87.1614 99.3604 93.5096 104.289 89.2132C108.563 85.4871 110.264 84.3591 109.97 84.1467Z" fill="#70E000" stroke="#17280B" stroke-width="1.23451"/>
<path fill-rule="evenodd" clip-rule="evenodd" d="M112.013 82.1383L112.695 83.3314C108.913 85.3346 104.765 86.5816 100.557 87.0004C97.4955 87.3051 94.4048 87.1736 91.406 86.6187C94.4337 86.983 97.499 86.9157 100.481 86.4269C104.579 85.7553 108.52 84.2829 112.013 82.1383Z" fill="#17280B"/>
<path d="M233.457 147.376C233.457 147.376 242.687 150.054 246.074 154.608C249.462 159.163 251.561 170.281 251.561 170.281C251.561 170.281 243.975 167.926 240.397 163.848C236.819 159.771 233.477 147.604 233.458 147.376L233.457 147.376Z" fill="#5AA02C" stroke="#17280B" stroke-width="1.10645"/>
<path fill-rule="evenodd" clip-rule="evenodd" d="M232.699 144.965L231.976 145.358C234.385 149.617 237.124 153.683 240.156 157.509C242.581 160.567 245.194 163.472 247.974 166.201C245.28 163.387 242.765 160.407 240.446 157.287C237.546 153.384 234.954 149.259 232.699 144.965L232.699 144.965Z" fill="#17280B"/>
<path d="M190.588 120.483C190.588 120.483 191.874 120.073 197.833 121.662C206.912 124.084 207.412 138.977 207.412 138.977C207.412 138.977 192.437 134.272 191.544 127.906C190.769 122.385 190.233 120.452 190.588 120.483L190.588 120.483Z" fill="#5AA02C" stroke="#17280B" stroke-width="1.21464"/>
<path fill-rule="evenodd" clip-rule="evenodd" d="M190.364 117.678L189.088 118.125C190.608 122.048 192.888 125.645 195.745 128.665C197.824 130.862 200.206 132.754 202.793 134.272C200.308 132.593 198.073 130.57 196.171 128.287C193.558 125.15 191.578 121.52 190.364 117.678Z" fill="#17280B"/>
<path d="M219.169 117.356C219.169 117.356 226.943 109.679 237.503 113.666C248.064 117.652 253.242 123.135 253.242 123.135C253.242 123.135 242.298 125.939 235.151 124.81C228.005 123.682 218.791 117.712 219.169 117.356Z" fill="#5AA02C" stroke="#17280B" stroke-width="1.25183"/>
<path fill-rule="evenodd" clip-rule="evenodd" d="M213.545 117.487L213.726 118.397C219.002 117.274 224.441 116.86 229.848 117.176C235.129 117.484 240.38 118.489 245.419 120.161C240.43 118.345 235.192 117.183 229.882 116.719C224.445 116.244 218.934 116.501 213.545 117.487L213.545 117.487Z" fill="#17280B"/>
<path d="M195.875 97.5783C195.875 97.5783 196.123 89.6529 200.34 84.4521C204.556 79.2513 218.694 79.0037 218.694 79.0037C218.694 79.0037 210.261 92.3776 204.309 95.3494C198.217 98.3906 195.38 97.5783 195.875 97.5783Z" fill="#5AA02C" stroke="#17280B" stroke-width="1.19308"/>
<path fill-rule="evenodd" clip-rule="evenodd" d="M194.295 99.5239L195.5 100.081C196.632 97.4676 198.049 94.9686 199.72 92.6428C202.026 89.4357 204.827 86.5492 208.125 84.3269C209.805 83.1942 211.609 82.2358 213.499 81.4751C211.574 82.1414 209.714 83.0127 207.961 84.072C204.522 86.1512 201.52 88.9412 199.004 92.1018C197.179 94.3923 195.597 96.8844 194.294 99.5237L194.295 99.5239Z" fill="#17280B"/>
<path d="M160.606 116.183C160.606 116.183 167.41 122.903 176.654 119.413C185.898 115.924 190.43 111.125 190.43 111.125C190.43 111.125 180.851 108.67 174.595 109.658C168.339 110.646 160.274 115.871 160.606 116.183Z" fill="#5AA02C" stroke="#17280B" stroke-width="1.09576"/>
<path fill-rule="evenodd" clip-rule="evenodd" d="M155.682 116.069L155.841 115.272C160.459 116.255 165.22 116.617 169.953 116.341C174.576 116.071 179.172 115.192 183.583 113.728C179.216 115.317 174.631 116.335 169.983 116.741C165.224 117.157 160.4 116.932 155.682 116.069L155.682 116.069Z" fill="#17280B"/>
<path d="M237.655 93.9659C237.655 93.9659 245.172 99.877 253.964 95.3699C262.756 90.8628 266.72 85.584 266.72 85.584C266.72 85.584 256.926 84.2229 250.821 85.9087C244.716 87.5941 237.29 93.6931 237.655 93.9659Z" fill="#5AA02C" stroke="#17280B" stroke-width="1.09575"/>
<path fill-rule="evenodd" clip-rule="evenodd" d="M232.75 94.4052L232.818 93.5958C237.517 94.0531 242.289 93.8773 246.961 93.07C251.523 92.2815 255.991 90.8907 260.209 88.9401C256.049 91.0108 251.608 92.5376 247.035 93.4641C242.353 94.4128 237.534 94.732 232.75 94.4052L232.75 94.4052Z" fill="#17280B"/>
<path d="M180.737 61.9756C180.737 61.9756 176.855 52.3978 184.184 44.6456C191.514 36.8934 198.193 34.3796 198.193 34.3796C198.193 34.3796 196.661 44.9436 193.072 50.7624C189.483 56.5809 180.91 62.4357 180.737 61.9756Z" fill="#5AA02C" stroke="#17280B" stroke-width="1.18424"/>
<path fill-rule="evenodd" clip-rule="evenodd" d="M178.801 66.9259L179.662 67.1005C180.601 62.0909 182.22 57.1982 184.464 52.5998C186.656 48.1087 189.446 43.8982 192.742 40.115C189.338 43.8017 186.415 47.9441 184.077 52.4039C181.682 56.9702 179.901 61.8683 178.801 66.926L178.801 66.9259Z" fill="#17280B"/>
<path d="M214.548 51.055C214.548 51.055 222.432 52.1617 228.298 48.8875C234.164 45.6133 236.826 31.7036 236.826 31.7036C236.826 31.7036 222.153 37.7453 218.195 43.1128C214.145 48.6056 214.464 51.5444 214.548 51.055Z" fill="#5AA02C" stroke="#17280B" stroke-width="1.19641"/>
<path fill-rule="evenodd" clip-rule="evenodd" d="M212.353 52.2825L212.008 50.9976C214.787 50.3263 217.502 49.3546 220.089 48.1018C223.656 46.3724 226.991 44.1004 229.753 41.2253C231.161 39.7604 232.418 38.1428 233.493 36.4071C232.505 38.1939 231.325 39.881 229.977 41.43C227.332 44.4692 224.059 46.9561 220.501 48.9007C217.923 50.3108 215.187 51.4477 212.353 52.2827L212.353 52.2825Z" fill="#17280B"/>
<path d="M158.038 84.1467C158.038 84.1467 158.752 82.9761 164.388 80.2328C172.975 76.0526 183.284 87.1614 183.284 87.1614C183.284 87.1614 168.647 93.5096 163.719 89.2132C159.444 85.4871 157.744 84.359 158.038 84.1466L158.038 84.1467Z" fill="#5AA02C" stroke="#17280B" stroke-width="1.23451"/>
<path fill-rule="evenodd" clip-rule="evenodd" d="M155.994 82.1383L155.312 83.3314C159.094 85.3346 163.243 86.5816 167.45 87.0004C170.512 87.3051 173.603 87.1736 176.601 86.6187C173.574 86.983 170.508 86.9157 167.526 86.4269C163.428 85.7553 159.488 84.2829 155.994 82.1383Z" fill="#17280B"/>
<path d="M233.457 147.376C233.457 147.376 242.687 150.054 246.074 154.608C249.462 159.163 251.561 170.281 251.561 170.281C251.561 170.281 243.975 167.926 240.397 163.848C236.819 159.771 233.477 147.604 233.457 147.376Z" fill="#70E000" stroke="#17280B" stroke-width="1.10645"/>
<path fill-rule="evenodd" clip-rule="evenodd" d="M232.699 144.965L231.976 145.358C234.385 149.617 237.124 153.683 240.156 157.509C242.581 160.567 245.194 163.472 247.974 166.201C245.28 163.387 242.765 160.407 240.446 157.287C237.546 153.384 234.954 149.259 232.699 144.965L232.699 144.965Z" fill="#17280B"/>
<path d="M190.588 120.483C190.588 120.483 191.874 120.073 197.833 121.662C206.912 124.084 207.412 138.977 207.412 138.977C207.412 138.977 192.437 134.272 191.544 127.906C190.769 122.385 190.233 120.452 190.588 120.483Z" fill="#70E000" stroke="#17280B" stroke-width="1.21464"/>
<path fill-rule="evenodd" clip-rule="evenodd" d="M190.364 117.678L189.088 118.125C190.608 122.048 192.888 125.645 195.745 128.665C197.824 130.862 200.206 132.754 202.793 134.272C200.308 132.593 198.073 130.57 196.171 128.287C193.558 125.15 191.578 121.52 190.364 117.678Z" fill="#17280B"/>
<path d="M219.169 117.356C219.169 117.356 226.943 109.679 237.503 113.666C248.064 117.652 253.242 123.135 253.242 123.135C253.242 123.135 242.298 125.939 235.151 124.81C228.005 123.682 218.791 117.712 219.169 117.356Z" fill="#70E000" stroke="#17280B" stroke-width="1.25183"/>
<path fill-rule="evenodd" clip-rule="evenodd" d="M213.545 117.487L213.726 118.397C219.002 117.274 224.441 116.86 229.848 117.176C235.129 117.484 240.38 118.489 245.419 120.161C240.43 118.345 235.192 117.183 229.882 116.719C224.445 116.244 218.934 116.501 213.545 117.487L213.545 117.487Z" fill="#17280B"/>
<path d="M195.875 97.5783C195.875 97.5783 196.123 89.6529 200.34 84.4521C204.556 79.2513 218.694 79.0037 218.694 79.0037C218.694 79.0037 210.261 92.3776 204.309 95.3494C198.217 98.3906 195.38 97.5783 195.875 97.5783Z" fill="#70E000" stroke="#17280B" stroke-width="1.19308"/>
<path fill-rule="evenodd" clip-rule="evenodd" d="M194.295 99.5239L195.5 100.081C196.632 97.4676 198.049 94.9686 199.72 92.6428C202.026 89.4357 204.827 86.5492 208.125 84.3269C209.805 83.1942 211.609 82.2358 213.499 81.4751C211.574 82.1414 209.714 83.0127 207.961 84.072C204.522 86.1512 201.52 88.9412 199.004 92.1018C197.179 94.3923 195.597 96.8844 194.294 99.5237L194.295 99.5239Z" fill="#17280B"/>
<path d="M160.606 116.183C160.606 116.183 167.41 122.903 176.654 119.413C185.898 115.924 190.43 111.125 190.43 111.125C190.43 111.125 180.851 108.67 174.595 109.658C168.339 110.646 160.274 115.871 160.606 116.183Z" fill="#70E000" stroke="#17280B" stroke-width="1.09576"/>
<path fill-rule="evenodd" clip-rule="evenodd" d="M155.682 116.069L155.841 115.272C160.459 116.255 165.22 116.617 169.953 116.341C174.576 116.071 179.172 115.192 183.583 113.728C179.216 115.317 174.631 116.335 169.983 116.741C165.224 117.157 160.4 116.932 155.682 116.069L155.682 116.069Z" fill="#17280B"/>
<path d="M237.655 93.9659C237.655 93.9659 245.172 99.877 253.964 95.3699C262.756 90.8628 266.72 85.584 266.72 85.584C266.72 85.584 256.926 84.2229 250.821 85.9087C244.716 87.5941 237.29 93.6931 237.655 93.9659Z" fill="#70E000" stroke="#17280B" stroke-width="1.09575"/>
<path fill-rule="evenodd" clip-rule="evenodd" d="M232.75 94.4052L232.818 93.5958C237.517 94.0531 242.289 93.8773 246.961 93.07C251.523 92.2815 255.991 90.8907 260.209 88.9401C256.049 91.0108 251.608 92.5376 247.035 93.4641C242.353 94.4128 237.534 94.732 232.75 94.4052L232.75 94.4052Z" fill="#17280B"/>
<path d="M180.737 61.9756C180.737 61.9756 176.855 52.3978 184.184 44.6456C191.514 36.8934 198.193 34.3796 198.193 34.3796C198.193 34.3796 196.661 44.9436 193.072 50.7624C189.483 56.5809 180.91 62.4357 180.737 61.9756Z" fill="#70E000" stroke="#17280B" stroke-width="1.18424"/>
<path fill-rule="evenodd" clip-rule="evenodd" d="M178.801 66.9259L179.662 67.1005C180.601 62.0909 182.22 57.1982 184.464 52.5998C186.656 48.1087 189.446 43.8982 192.742 40.115C189.338 43.8017 186.415 47.9441 184.077 52.4039C181.682 56.9702 179.901 61.8683 178.801 66.926L178.801 66.9259Z" fill="#17280B"/>
<path d="M214.548 51.055C214.548 51.055 222.432 52.1617 228.298 48.8875C234.164 45.6133 236.826 31.7036 236.826 31.7036C236.826 31.7036 222.153 37.7453 218.195 43.1128C214.145 48.6056 214.464 51.5444 214.548 51.055Z" fill="#70E000" stroke="#17280B" stroke-width="1.19641"/>
<path fill-rule="evenodd" clip-rule="evenodd" d="M212.353 52.2825L212.008 50.9976C214.787 50.3263 217.502 49.3546 220.089 48.1018C223.656 46.3724 226.991 44.1004 229.753 41.2253C231.161 39.7604 232.418 38.1428 233.493 36.4071C232.505 38.1939 231.325 39.881 229.977 41.43C227.332 44.4692 224.059 46.9561 220.501 48.9007C217.923 50.3108 215.187 51.4477 212.353 52.2827L212.353 52.2825Z" fill="#17280B"/>
<path d="M158.038 84.1467C158.038 84.1467 158.752 82.9761 164.388 80.2328C172.975 76.0526 183.284 87.1614 183.284 87.1614C183.284 87.1614 168.647 93.5096 163.719 89.2132C159.444 85.4871 157.744 84.3591 158.038 84.1467Z" fill="#70E000" stroke="#17280B" stroke-width="1.23451"/>
<path fill-rule="evenodd" clip-rule="evenodd" d="M155.994 82.1383L155.312 83.3314C159.094 85.3346 163.243 86.5816 167.45 87.0004C170.512 87.3051 173.603 87.1736 176.601 86.6187C173.574 86.983 170.508 86.9157 167.526 86.4269C163.428 85.7553 159.488 84.2829 155.994 82.1383Z" fill="#17280B"/>
</svg>
